<?xml version="1.0" encoding="UTF-8" standalone="no"?>
<!DOCTYPE svg PUBLIC "-//W3C//DTD SVG 1.1//EN"
 "http://www.w3.org/Graphics/SVG/1.1/DTD/svg11.dtd">
<!-- Generated by graphviz version 2.43.0 (0)
 -->
<!-- Title: ../../../model&#45;artifacts//fcnn&#45;final//tempDir/runtimes_visualization.svg Pages: 1 -->
<svg width="1054pt" height="717pt"
 viewBox="0.00 0.00 1054.00 716.80" xmlns="http://www.w3.org/2000/svg" xmlns:xlink="http://www.w3.org/1999/xlink">
<g id="graph0" class="graph" transform="scale(1 1) rotate(0) translate(468 702.4)">
<title>../../../model&#45;artifacts//fcnn&#45;final//tempDir/runtimes_visualization.svg</title>
<polygon fill="white" stroke="transparent" points="-468,14.4 -468,-702.4 586,-702.4 586,14.4 -468,14.4"/>
<g id="clust1" class="cluster">
<title>cluster_0</title>
<path fill="none" stroke="#375588" stroke-width="2" d="M28,-383C28,-383 90,-383 90,-383 96,-383 102,-389 102,-395 102,-395 102,-649 102,-649 102,-655 96,-661 90,-661 90,-661 28,-661 28,-661 22,-661 16,-655 16,-649 16,-649 16,-395 16,-395 16,-389 22,-383 28,-383"/>
</g>
<g id="clust2" class="cluster">
<title>cluster_1</title>
<path fill="none" stroke="#338533" stroke-width="2" d="M34,-232C34,-232 84,-232 84,-232 90,-232 96,-238 96,-244 96,-244 96,-336 96,-336 96,-342 90,-348 84,-348 84,-348 34,-348 34,-348 28,-348 22,-342 22,-336 22,-336 22,-244 22,-244 22,-238 28,-232 34,-232"/>
</g>
<g id="clust3" class="cluster">
<title>cluster_2</title>
<path fill="none" stroke="#4b1616" stroke-width="2" d="M20,-81C20,-81 98,-81 98,-81 104,-81 110,-87 110,-93 110,-93 110,-185 110,-185 110,-191 104,-197 98,-197 98,-197 20,-197 20,-197 14,-197 8,-191 8,-185 8,-185 8,-93 8,-93 8,-87 14,-81 20,-81"/>
</g>
<!-- Name : /cnn/cnn.0/conv/Conv
Info :  -->
<g id="node1" class="node">
<title>Name : /cnn/cnn.0/conv/Conv
Info : </title>
<path fill="#375588" stroke="#000000" d="M79.67,-653C79.67,-653 38.33,-653 38.33,-653 35.17,-653 32,-649.83 32,-646.67 32,-646.67 32,-640.33 32,-640.33 32,-637.17 35.17,-634 38.33,-634 38.33,-634 79.67,-634 79.67,-634 82.83,-634 86,-637.17 86,-640.33 86,-640.33 86,-646.67 86,-646.67 86,-649.83 82.83,-653 79.67,-653"/>
<text text-anchor="middle" x="59" y="-641" font-family="Times,serif" font-size="10.00" fill="#ffffff">0:Conv</text>
</g>
<!-- Name : /cnn/cnn.0/relu/Relu
Info :  -->
<g id="node2" class="node">
<title>Name : /cnn/cnn.0/relu/Relu
Info : </title>
<path fill="#375588" stroke="#000000" d="M79.67,-626C79.67,-626 38.33,-626 38.33,-626 35.17,-626 32,-622.83 32,-619.67 32,-619.67 32,-613.33 32,-613.33 32,-610.17 35.17,-607 38.33,-607 38.33,-607 79.67,-607 79.67,-607 82.83,-607 86,-610.17 86,-613.33 86,-613.33 86,-619.67 86,-619.67 86,-622.83 82.83,-626 79.67,-626"/>
<text text-anchor="middle" x="59" y="-614" font-family="Times,serif" font-size="10.00" fill="#ffffff">1:Relu</text>
</g>
<!-- Name : /cnn/cnn.0/conv/Conv
Info : &#45;&gt;Name : /cnn/cnn.0/relu/Relu
Info :  -->
<g id="edge1" class="edge">
<title>Name : /cnn/cnn.0/conv/Conv
Info : &#45;&gt;Name : /cnn/cnn.0/relu/Relu
Info : </title>
<path fill="none" stroke="black" stroke-width="0.7" d="M59,-633.76C59,-632.98 59,-632.19 59,-631.38"/>
<polygon fill="black" stroke="black" stroke-width="0.7" points="59,-626.11 61.25,-631.11 59,-628.61 59,-631.11 59,-631.11 59,-631.11 59,-628.61 56.75,-631.11 59,-626.11 59,-626.11"/>
</g>
<!-- Name : /cnn/cnn.1/MaxPool
Info :  -->
<g id="node3" class="node">
<title>Name : /cnn/cnn.1/MaxPool
Info : </title>
<path fill="#375588" stroke="#000000" d="M87.17,-599C87.17,-599 30.83,-599 30.83,-599 27.67,-599 24.5,-595.83 24.5,-592.67 24.5,-592.67 24.5,-586.33 24.5,-586.33 24.5,-583.17 27.67,-580 30.83,-580 30.83,-580 87.17,-580 87.17,-580 90.33,-580 93.5,-583.17 93.5,-586.33 93.5,-586.33 93.5,-592.67 93.5,-592.67 93.5,-595.83 90.33,-599 87.17,-599"/>
<text text-anchor="middle" x="59" y="-587" font-family="Times,serif" font-size="10.00" fill="#ffffff">2:MaxPool</text>
</g>
<!-- Name : /cnn/cnn.0/relu/Relu
Info : &#45;&gt;Name : /cnn/cnn.1/MaxPool
Info :  -->
<g id="edge2" class="edge">
<title>Name : /cnn/cnn.0/relu/Relu
Info : &#45;&gt;Name : /cnn/cnn.1/MaxPool
Info : </title>
<path fill="none" stroke="black" stroke-width="0.7" d="M59,-606.76C59,-605.98 59,-605.19 59,-604.38"/>
<polygon fill="black" stroke="black" stroke-width="0.7" points="59,-599.11 61.25,-604.11 59,-601.61 59,-604.11 59,-604.11 59,-604.11 59,-601.61 56.75,-604.11 59,-599.11 59,-599.11"/>
</g>
<!-- Name : /cnn/cnn.2/conv/Conv
Info :  -->
<g id="node4" class="node">
<title>Name : /cnn/cnn.2/conv/Conv
Info : </title>
<path fill="#375588" stroke="#000000" d="M79.67,-572C79.67,-572 38.33,-572 38.33,-572 35.17,-572 32,-568.83 32,-565.67 32,-565.67 32,-559.33 32,-559.33 32,-556.17 35.17,-553 38.33,-553 38.33,-553 79.67,-553 79.67,-553 82.83,-553 86,-556.17 86,-559.33 86,-559.33 86,-565.67 86,-565.67 86,-568.83 82.83,-572 79.67,-572"/>
<text text-anchor="middle" x="59" y="-560" font-family="Times,serif" font-size="10.00" fill="#ffffff">3:Conv</text>
</g>
<!-- Name : /cnn/cnn.1/MaxPool
Info : &#45;&gt;Name : /cnn/cnn.2/conv/Conv
Info :  -->
<g id="edge3" class="edge">
<title>Name : /cnn/cnn.1/MaxPool
Info : &#45;&gt;Name : /cnn/cnn.2/conv/Conv
Info : </title>
<path fill="none" stroke="black" stroke-width="0.7" d="M59,-579.76C59,-578.98 59,-578.19 59,-577.38"/>
<polygon fill="black" stroke="black" stroke-width="0.7" points="59,-572.11 61.25,-577.11 59,-574.61 59,-577.11 59,-577.11 59,-577.11 59,-574.61 56.75,-577.11 59,-572.11 59,-572.11"/>
</g>
<!-- Name : /cnn/cnn.2/relu/Relu
Info :  -->
<g id="node5" class="node">
<title>Name : /cnn/cnn.2/relu/Relu
Info : </title>
<path fill="#375588" stroke="#000000" d="M79.67,-545C79.67,-545 38.33,-545 38.33,-545 35.17,-545 32,-541.83 32,-538.67 32,-538.67 32,-532.33 32,-532.33 32,-529.17 35.17,-526 38.33,-526 38.33,-526 79.67,-526 79.67,-526 82.83,-526 86,-529.17 86,-532.33 86,-532.33 86,-538.67 86,-538.67 86,-541.83 82.83,-545 79.67,-545"/>
<text text-anchor="middle" x="59" y="-533" font-family="Times,serif" font-size="10.00" fill="#ffffff">4:Relu</text>
</g>
<!-- Name : /cnn/cnn.2/conv/Conv
Info : &#45;&gt;Name : /cnn/cnn.2/relu/Relu
Info :  -->
<g id="edge4" class="edge">
<title>Name : /cnn/cnn.2/conv/Conv
Info : &#45;&gt;Name : /cnn/cnn.2/relu/Relu
Info : </title>
<path fill="none" stroke="black" stroke-width="0.7" d="M59,-552.76C59,-551.98 59,-551.19 59,-550.38"/>
<polygon fill="black" stroke="black" stroke-width="0.7" points="59,-545.11 61.25,-550.11 59,-547.61 59,-550.11 59,-550.11 59,-550.11 59,-547.61 56.75,-550.11 59,-545.11 59,-545.11"/>
</g>
<!-- Name : /cnn/cnn.3/MaxPool
Info :  -->
<g id="node6" class="node">
<title>Name : /cnn/cnn.3/MaxPool
Info : </title>
<path fill="#375588" stroke="#000000" d="M87.17,-518C87.17,-518 30.83,-518 30.83,-518 27.67,-518 24.5,-514.83 24.5,-511.67 24.5,-511.67 24.5,-505.33 24.5,-505.33 24.5,-502.17 27.67,-499 30.83,-499 30.83,-499 87.17,-499 87.17,-499 90.33,-499 93.5,-502.17 93.5,-505.33 93.5,-505.33 93.5,-511.67 93.5,-511.67 93.5,-514.83 90.33,-518 87.17,-518"/>
<text text-anchor="middle" x="59" y="-506" font-family="Times,serif" font-size="10.00" fill="#ffffff">5:MaxPool</text>
</g>
<!-- Name : /cnn/cnn.2/relu/Relu
Info : &#45;&gt;Name : /cnn/cnn.3/MaxPool
Info :  -->
<g id="edge5" class="edge">
<title>Name : /cnn/cnn.2/relu/Relu
Info : &#45;&gt;Name : /cnn/cnn.3/MaxPool
Info : </title>
<path fill="none" stroke="black" stroke-width="0.7" d="M59,-525.76C59,-524.98 59,-524.19 59,-523.38"/>
<polygon fill="black" stroke="black" stroke-width="0.7" points="59,-518.11 61.25,-523.11 59,-520.61 59,-523.11 59,-523.11 59,-523.11 59,-520.61 56.75,-523.11 59,-518.11 59,-518.11"/>
</g>
<!-- Name : /cnn/cnn.4/conv/Conv
Info :  -->
<g id="node7" class="node">
<title>Name : /cnn/cnn.4/conv/Conv
Info : </title>
<path fill="#375588" stroke="#000000" d="M79.67,-491C79.67,-491 38.33,-491 38.33,-491 35.17,-491 32,-487.83 32,-484.67 32,-484.67 32,-478.33 32,-478.33 32,-475.17 35.17,-472 38.33,-472 38.33,-472 79.67,-472 79.67,-472 82.83,-472 86,-475.17 86,-478.33 86,-478.33 86,-484.67 86,-484.67 86,-487.83 82.83,-491 79.67,-491"/>
<text text-anchor="middle" x="59" y="-479" font-family="Times,serif" font-size="10.00" fill="#ffffff">6:Conv</text>
</g>
<!-- Name : /cnn/cnn.3/MaxPool
Info : &#45;&gt;Name : /cnn/cnn.4/conv/Conv
Info :  -->
<g id="edge6" class="edge">
<title>Name : /cnn/cnn.3/MaxPool
Info : &#45;&gt;Name : /cnn/cnn.4/conv/Conv
Info : </title>
<path fill="none" stroke="black" stroke-width="0.7" d="M59,-498.76C59,-497.98 59,-497.19 59,-496.38"/>
<polygon fill="black" stroke="black" stroke-width="0.7" points="59,-491.11 61.25,-496.11 59,-493.61 59,-496.11 59,-496.11 59,-496.11 59,-493.61 56.75,-496.11 59,-491.11 59,-491.11"/>
</g>
<!-- Name : /cnn/cnn.4/relu/Relu
Info :  -->
<g id="node8" class="node">
<title>Name : /cnn/cnn.4/relu/Relu
Info : </title>
<path fill="#375588" stroke="#000000" d="M79.67,-464C79.67,-464 38.33,-464 38.33,-464 35.17,-464 32,-460.83 32,-457.67 32,-457.67 32,-451.33 32,-451.33 32,-448.17 35.17,-445 38.33,-445 38.33,-445 79.67,-445 79.67,-445 82.83,-445 86,-448.17 86,-451.33 86,-451.33 86,-457.67 86,-457.67 86,-460.83 82.83,-464 79.67,-464"/>
<text text-anchor="middle" x="59" y="-452" font-family="Times,serif" font-size="10.00" fill="#ffffff">7:Relu</text>
</g>
<!-- Name : /cnn/cnn.4/conv/Conv
Info : &#45;&gt;Name : /cnn/cnn.4/relu/Relu
Info :  -->
<g id="edge7" class="edge">
<title>Name : /cnn/cnn.4/conv/Conv
Info : &#45;&gt;Name : /cnn/cnn.4/relu/Relu
Info : </title>
<path fill="none" stroke="black" stroke-width="0.7" d="M59,-471.76C59,-470.98 59,-470.19 59,-469.38"/>
<polygon fill="black" stroke="black" stroke-width="0.7" points="59,-464.11 61.25,-469.11 59,-466.61 59,-469.11 59,-469.11 59,-469.11 59,-466.61 56.75,-469.11 59,-464.11 59,-464.11"/>
</g>
<!-- Name : /cnn/cnn.5/conv/Conv
Info :  -->
<g id="node9" class="node">
<title>Name : /cnn/cnn.5/conv/Conv
Info : </title>
<path fill="#375588" stroke="#000000" d="M79.67,-437C79.67,-437 38.33,-437 38.33,-437 35.17,-437 32,-433.83 32,-430.67 32,-430.67 32,-424.33 32,-424.33 32,-421.17 35.17,-418 38.33,-418 38.33,-418 79.67,-418 79.67,-418 82.83,-418 86,-421.17 86,-424.33 86,-424.33 86,-430.67 86,-430.67 86,-433.83 82.83,-437 79.67,-437"/>
<text text-anchor="middle" x="59" y="-425" font-family="Times,serif" font-size="10.00" fill="#ffffff">8:Conv</text>
</g>
<!-- Name : /cnn/cnn.4/relu/Relu
Info : &#45;&gt;Name : /cnn/cnn.5/conv/Conv
Info :  -->
<g id="edge8" class="edge">
<title>Name : /cnn/cnn.4/relu/Relu
Info : &#45;&gt;Name : /cnn/cnn.5/conv/Conv
Info : </title>
<path fill="none" stroke="black" stroke-width="0.7" d="M59,-444.76C59,-443.98 59,-443.19 59,-442.38"/>
<polygon fill="black" stroke="black" stroke-width="0.7" points="59,-437.11 61.25,-442.11 59,-439.61 59,-442.11 59,-442.11 59,-442.11 59,-439.61 56.75,-442.11 59,-437.11 59,-437.11"/>
</g>
<!-- Name : /cnn/cnn.5/relu/Relu
Info :  -->
<g id="node10" class="node">
<title>Name : /cnn/cnn.5/relu/Relu
Info : </title>
<path fill="#375588" stroke="#000000" d="M79.67,-410C79.67,-410 38.33,-410 38.33,-410 35.17,-410 32,-406.83 32,-403.67 32,-403.67 32,-397.33 32,-397.33 32,-394.17 35.17,-391 38.33,-391 38.33,-391 79.67,-391 79.67,-391 82.83,-391 86,-394.17 86,-397.33 86,-397.33 86,-403.67 86,-403.67 86,-406.83 82.83,-410 79.67,-410"/>
<text text-anchor="middle" x="59" y="-398" font-family="Times,serif" font-size="10.00" fill="#ffffff">9:Relu</text>
</g>
<!-- Name : /cnn/cnn.5/conv/Conv
Info : &#45;&gt;Name : /cnn/cnn.5/relu/Relu
Info :  -->
<g id="edge9" class="edge">
<title>Name : /cnn/cnn.5/conv/Conv
Info : &#45;&gt;Name : /cnn/cnn.5/relu/Relu
Info : </title>
<path fill="none" stroke="black" stroke-width="0.7" d="M59,-417.76C59,-416.98 59,-416.19 59,-415.38"/>
<polygon fill="black" stroke="black" stroke-width="0.7" points="59,-410.11 61.25,-415.11 59,-412.61 59,-415.11 59,-415.11 59,-415.11 59,-412.61 56.75,-415.11 59,-410.11 59,-410.11"/>
</g>
<!-- Name : /cnn/cnn.6/MaxPool
Info : TIDL ALLOWLISTING LAYER CHECK &#45;&#45; TIDL_PoolingLayer &#39;&#39;: kernel size 2x1 with stride 2x1 not supported -->
<g id="node19" class="node">
<title>Name : /cnn/cnn.6/MaxPool
Info : TIDL ALLOWLISTING LAYER CHECK &#45;&#45; TIDL_PoolingLayer &#39;&#39;: kernel size 2x1 with stride 2x1 not supported</title>
<path fill="#707070" stroke="#000000" d="M90.17,-375C90.17,-375 27.83,-375 27.83,-375 24.67,-375 21.5,-371.83 21.5,-368.67 21.5,-368.67 21.5,-362.33 21.5,-362.33 21.5,-359.17 24.67,-356 27.83,-356 27.83,-356 90.17,-356 90.17,-356 93.33,-356 96.5,-359.17 96.5,-362.33 96.5,-362.33 96.5,-368.67 96.5,-368.67 96.5,-371.83 93.33,-375 90.17,-375"/>
<text text-anchor="middle" x="59" y="-363" font-family="Times,serif" font-size="10.00" fill="#ffffff">10:MaxPool</text>
</g>
<!-- Name : /cnn/cnn.5/relu/Relu
Info : &#45;&gt;Name : /cnn/cnn.6/MaxPool
Info : TIDL ALLOWLISTING LAYER CHECK &#45;&#45; TIDL_PoolingLayer &#39;&#39;: kernel size 2x1 with stride 2x1 not supported -->
<g id="edge10" class="edge">
<title>Name : /cnn/cnn.5/relu/Relu
Info : &#45;&gt;Name : /cnn/cnn.6/MaxPool
Info : TIDL ALLOWLISTING LAYER CHECK &#45;&#45; TIDL_PoolingLayer &#39;&#39;: kernel size 2x1 with stride 2x1 not supported</title>
<path fill="none" stroke="black" stroke-width="0.7" d="M59,-390.83C59,-387.72 59,-384.13 59,-380.68"/>
<polygon fill="black" stroke="black" stroke-width="0.7" points="59,-375.46 61.25,-380.46 59,-377.96 59,-380.46 59,-380.46 59,-380.46 59,-377.96 56.75,-380.46 59,-375.46 59,-375.46"/>
</g>
<!-- Name : /cnn/cnn.7/conv/Conv
Info :  -->
<g id="node11" class="node">
<title>Name : /cnn/cnn.7/conv/Conv
Info : </title>
<path fill="#338533" stroke="#000000" d="M81.67,-340C81.67,-340 36.33,-340 36.33,-340 33.17,-340 30,-336.83 30,-333.67 30,-333.67 30,-327.33 30,-327.33 30,-324.17 33.17,-321 36.33,-321 36.33,-321 81.67,-321 81.67,-321 84.83,-321 88,-324.17 88,-327.33 88,-327.33 88,-333.67 88,-333.67 88,-336.83 84.83,-340 81.67,-340"/>
<text text-anchor="middle" x="59" y="-328" font-family="Times,serif" font-size="10.00" fill="#ffffff">11:Conv</text>
</g>
<!-- Name : /cnn/cnn.7/relu/Relu
Info :  -->
<g id="node12" class="node">
<title>Name : /cnn/cnn.7/relu/Relu
Info : </title>
<path fill="#338533" stroke="#000000" d="M80.17,-313C80.17,-313 37.83,-313 37.83,-313 34.67,-313 31.5,-309.83 31.5,-306.67 31.5,-306.67 31.5,-300.33 31.5,-300.33 31.5,-297.17 34.67,-294 37.83,-294 37.83,-294 80.17,-294 80.17,-294 83.33,-294 86.5,-297.17 86.5,-300.33 86.5,-300.33 86.5,-306.67 86.5,-306.67 86.5,-309.83 83.33,-313 80.17,-313"/>
<text text-anchor="middle" x="59" y="-301" font-family="Times,serif" font-size="10.00" fill="#ffffff">12:Relu</text>
</g>
<!-- Name : /cnn/cnn.7/conv/Conv
Info : &#45;&gt;Name : /cnn/cnn.7/relu/Relu
Info :  -->
<g id="edge12" class="edge">
<title>Name : /cnn/cnn.7/conv/Conv
Info : &#45;&gt;Name : /cnn/cnn.7/relu/Relu
Info : </title>
<path fill="none" stroke="black" stroke-width="0.7" d="M59,-320.76C59,-319.98 59,-319.19 59,-318.38"/>
<polygon fill="black" stroke="black" stroke-width="0.7" points="59,-313.11 61.25,-318.11 59,-315.61 59,-318.11 59,-318.11 59,-318.11 59,-315.61 56.75,-318.11 59,-313.11 59,-313.11"/>
</g>
<!-- Name : /cnn/cnn.8/conv/Conv
Info :  -->
<g id="node13" class="node">
<title>Name : /cnn/cnn.8/conv/Conv
Info : </title>
<path fill="#338533" stroke="#000000" d="M81.67,-286C81.67,-286 36.33,-286 36.33,-286 33.17,-286 30,-282.83 30,-279.67 30,-279.67 30,-273.33 30,-273.33 30,-270.17 33.17,-267 36.33,-267 36.33,-267 81.67,-267 81.67,-267 84.83,-267 88,-270.17 88,-273.33 88,-273.33 88,-279.67 88,-279.67 88,-282.83 84.83,-286 81.67,-286"/>
<text text-anchor="middle" x="59" y="-274" font-family="Times,serif" font-size="10.00" fill="#ffffff">13:Conv</text>
</g>
<!-- Name : /cnn/cnn.7/relu/Relu
Info : &#45;&gt;Name : /cnn/cnn.8/conv/Conv
Info :  -->
<g id="edge13" class="edge">
<title>Name : /cnn/cnn.7/relu/Relu
Info : &#45;&gt;Name : /cnn/cnn.8/conv/Conv
Info : </title>
<path fill="none" stroke="black" stroke-width="0.7" d="M59,-293.76C59,-292.98 59,-292.19 59,-291.38"/>
<polygon fill="black" stroke="black" stroke-width="0.7" points="59,-286.11 61.25,-291.11 59,-288.61 59,-291.11 59,-291.11 59,-291.11 59,-288.61 56.75,-291.11 59,-286.11 59,-286.11"/>
</g>
<!-- Name : /cnn/cnn.8/relu/Relu
Info :  -->
<g id="node14" class="node">
<title>Name : /cnn/cnn.8/relu/Relu
Info : </title>
<path fill="#338533" stroke="#000000" d="M80.17,-259C80.17,-259 37.83,-259 37.83,-259 34.67,-259 31.5,-255.83 31.5,-252.67 31.5,-252.67 31.5,-246.33 31.5,-246.33 31.5,-243.17 34.67,-240 37.83,-240 37.83,-240 80.17,-240 80.17,-240 83.33,-240 86.5,-243.17 86.5,-246.33 86.5,-246.33 86.5,-252.67 86.5,-252.67 86.5,-255.83 83.33,-259 80.17,-259"/>
<text text-anchor="middle" x="59" y="-247" font-family="Times,serif" font-size="10.00" fill="#ffffff">14:Relu</text>
</g>
<!-- Name : /cnn/cnn.8/conv/Conv
Info : &#45;&gt;Name : /cnn/cnn.8/relu/Relu
Info :  -->
<g id="edge14" class="edge">
<title>Name : /cnn/cnn.8/conv/Conv
Info : &#45;&gt;Name : /cnn/cnn.8/relu/Relu
Info : </title>
<path fill="none" stroke="black" stroke-width="0.7" d="M59,-266.76C59,-265.98 59,-265.19 59,-264.38"/>
<polygon fill="black" stroke="black" stroke-width="0.7" points="59,-259.11 61.25,-264.11 59,-261.61 59,-264.11 59,-264.11 59,-264.11 59,-261.61 56.75,-264.11 59,-259.11 59,-259.11"/>
</g>
<!-- Name : /cnn/cnn.9/MaxPool
Info : TIDL ALLOWLISTING LAYER CHECK &#45;&#45; TIDL_PoolingLayer &#39;&#39;: kernel size 2x1 with stride 2x1 not supported -->
<g id="node20" class="node">
<title>Name : /cnn/cnn.9/MaxPool
Info : TIDL ALLOWLISTING LAYER CHECK &#45;&#45; TIDL_PoolingLayer &#39;&#39;: kernel size 2x1 with stride 2x1 not supported</title>
<path fill="#707070" stroke="#000000" d="M90.17,-224C90.17,-224 27.83,-224 27.83,-224 24.67,-224 21.5,-220.83 21.5,-217.67 21.5,-217.67 21.5,-211.33 21.5,-211.33 21.5,-208.17 24.67,-205 27.83,-205 27.83,-205 90.17,-205 90.17,-205 93.33,-205 96.5,-208.17 96.5,-211.33 96.5,-211.33 96.5,-217.67 96.5,-217.67 96.5,-220.83 93.33,-224 90.17,-224"/>
<text text-anchor="middle" x="59" y="-212" font-family="Times,serif" font-size="10.00" fill="#ffffff">15:MaxPool</text>
</g>
<!-- Name : /cnn/cnn.8/relu/Relu
Info : &#45;&gt;Name : /cnn/cnn.9/MaxPool
Info : TIDL ALLOWLISTING LAYER CHECK &#45;&#45; TIDL_PoolingLayer &#39;&#39;: kernel size 2x1 with stride 2x1 not supported -->
<g id="edge15" class="edge">
<title>Name : /cnn/cnn.8/relu/Relu
Info : &#45;&gt;Name : /cnn/cnn.9/MaxPool
Info : TIDL ALLOWLISTING LAYER CHECK &#45;&#45; TIDL_PoolingLayer &#39;&#39;: kernel size 2x1 with stride 2x1 not supported</title>
<path fill="none" stroke="black" stroke-width="0.7" d="M59,-239.83C59,-236.72 59,-233.13 59,-229.68"/>
<polygon fill="black" stroke="black" stroke-width="0.7" points="59,-224.46 61.25,-229.46 59,-226.96 59,-229.46 59,-229.46 59,-229.46 59,-226.96 56.75,-229.46 59,-224.46 59,-224.46"/>
</g>
<!-- Name : /cnn/cnn.10/conv/Conv
Info :  -->
<g id="node15" class="node">
<title>Name : /cnn/cnn.10/conv/Conv
Info : </title>
<path fill="#4b1616" stroke="#000000" d="M81.67,-189C81.67,-189 36.33,-189 36.33,-189 33.17,-189 30,-185.83 30,-182.67 30,-182.67 30,-176.33 30,-176.33 30,-173.17 33.17,-170 36.33,-170 36.33,-170 81.67,-170 81.67,-170 84.83,-170 88,-173.17 88,-176.33 88,-176.33 88,-182.67 88,-182.67 88,-185.83 84.83,-189 81.67,-189"/>
<text text-anchor="middle" x="59" y="-177" font-family="Times,serif" font-size="10.00" fill="#ffffff">16:Conv</text>
</g>
<!-- Name : /cnn/cnn.10/relu/Relu
Info :  -->
<g id="node16" class="node">
<title>Name : /cnn/cnn.10/relu/Relu
Info : </title>
<path fill="#4b1616" stroke="#000000" d="M80.17,-162C80.17,-162 37.83,-162 37.83,-162 34.67,-162 31.5,-158.83 31.5,-155.67 31.5,-155.67 31.5,-149.33 31.5,-149.33 31.5,-146.17 34.67,-143 37.83,-143 37.83,-143 80.17,-143 80.17,-143 83.33,-143 86.5,-146.17 86.5,-149.33 86.5,-149.33 86.5,-155.67 86.5,-155.67 86.5,-158.83 83.33,-162 80.17,-162"/>
<text text-anchor="middle" x="59" y="-150" font-family="Times,serif" font-size="10.00" fill="#ffffff">17:Relu</text>
</g>
<!-- Name : /cnn/cnn.10/conv/Conv
Info : &#45;&gt;Name : /cnn/cnn.10/relu/Relu
Info :  -->
<g id="edge17" class="edge">
<title>Name : /cnn/cnn.10/conv/Conv
Info : &#45;&gt;Name : /cnn/cnn.10/relu/Relu
Info : </title>
<path fill="none" stroke="black" stroke-width="0.7" d="M59,-169.76C59,-168.98 59,-168.19 59,-167.38"/>
<polygon fill="black" stroke="black" stroke-width="0.7" points="59,-162.11 61.25,-167.11 59,-164.61 59,-167.11 59,-167.11 59,-167.11 59,-164.61 56.75,-167.11 59,-162.11 59,-162.11"/>
</g>
<!-- Name : /Reshape
Info :  -->
<g id="node17" class="node">
<title>Name : /Reshape
Info : </title>
<path fill="#4b1616" stroke="#000000" d="M90.67,-135C90.67,-135 27.33,-135 27.33,-135 24.17,-135 21,-131.83 21,-128.67 21,-128.67 21,-122.33 21,-122.33 21,-119.17 24.17,-116 27.33,-116 27.33,-116 90.67,-116 90.67,-116 93.83,-116 97,-119.17 97,-122.33 97,-122.33 97,-128.67 97,-128.67 97,-131.83 93.83,-135 90.67,-135"/>
<text text-anchor="middle" x="59" y="-123" font-family="Times,serif" font-size="10.00" fill="#ffffff">18:Reshape</text>
</g>
<!-- Name : /cnn/cnn.10/relu/Relu
Info : &#45;&gt;Name : /Reshape
Info :  -->
<g id="edge18" class="edge">
<title>Name : /cnn/cnn.10/relu/Relu
Info : &#45;&gt;Name : /Reshape
Info : </title>
<path fill="none" stroke="black" stroke-width="0.7" d="M59,-142.76C59,-141.98 59,-141.19 59,-140.38"/>
<polygon fill="black" stroke="black" stroke-width="0.7" points="59,-135.11 61.25,-140.11 59,-137.61 59,-140.11 59,-140.11 59,-140.11 59,-137.61 56.75,-140.11 59,-135.11 59,-135.11"/>
</g>
<!-- Name : /Transpose
Info :  -->
<g id="node18" class="node">
<title>Name : /Transpose
Info : </title>
<path fill="#4b1616" stroke="#000000" d="M95.17,-108C95.17,-108 22.83,-108 22.83,-108 19.67,-108 16.5,-104.83 16.5,-101.67 16.5,-101.67 16.5,-95.33 16.5,-95.33 16.5,-92.17 19.67,-89 22.83,-89 22.83,-89 95.17,-89 95.17,-89 98.33,-89 101.5,-92.17 101.5,-95.33 101.5,-95.33 101.5,-101.67 101.5,-101.67 101.5,-104.83 98.33,-108 95.17,-108"/>
<text text-anchor="middle" x="59" y="-96" font-family="Times,serif" font-size="10.00" fill="#ffffff">19:Transpose</text>
</g>
<!-- Name : /Reshape
Info : &#45;&gt;Name : /Transpose
Info :  -->
<g id="edge19" class="edge">
<title>Name : /Reshape
Info : &#45;&gt;Name : /Transpose
Info : </title>
<path fill="none" stroke="black" stroke-width="0.7" d="M59,-115.76C59,-114.98 59,-114.19 59,-113.38"/>
<polygon fill="black" stroke="black" stroke-width="0.7" points="59,-108.11 61.25,-113.11 59,-110.61 59,-113.11 59,-113.11 59,-113.11 59,-110.61 56.75,-113.11 59,-108.11 59,-108.11"/>
</g>
<!-- Name : /dense/MatMul
Info : Layer type not supported by TIDL &#45;&#45;&#45; layer type &#45; MatMul, &#160;Node name &#45;/dense/MatMul -->
<g id="node21" class="node">
<title>Name : /dense/MatMul
Info : Layer type not supported by TIDL &#45;&#45;&#45; layer type &#45; MatMul, &#160;Node name &#45;/dense/MatMul</title>
<path fill="#707070" stroke="#000000" d="M88.67,-73C88.67,-73 29.33,-73 29.33,-73 26.17,-73 23,-69.83 23,-66.67 23,-66.67 23,-60.33 23,-60.33 23,-57.17 26.17,-54 29.33,-54 29.33,-54 88.67,-54 88.67,-54 91.83,-54 95,-57.17 95,-60.33 95,-60.33 95,-66.67 95,-66.67 95,-69.83 91.83,-73 88.67,-73"/>
<text text-anchor="middle" x="59" y="-61" font-family="Times,serif" font-size="10.00" fill="#ffffff">20:MatMul</text>
</g>
<!-- Name : /Transpose
Info : &#45;&gt;Name : /dense/MatMul
Info : Layer type not supported by TIDL &#45;&#45;&#45; layer type &#45; MatMul, &#160;Node name &#45;/dense/MatMul -->
<g id="edge20" class="edge">
<title>Name : /Transpose
Info : &#45;&gt;Name : /dense/MatMul
Info : Layer type not supported by TIDL &#45;&#45;&#45; layer type &#45; MatMul, &#160;Node name &#45;/dense/MatMul</title>
<path fill="none" stroke="black" stroke-width="0.7" d="M59,-88.83C59,-85.72 59,-82.13 59,-78.68"/>
<polygon fill="black" stroke="black" stroke-width="0.7" points="59,-73.46 61.25,-78.46 59,-75.96 59,-78.46 59,-78.46 59,-78.46 59,-75.96 56.75,-78.46 59,-73.46 59,-73.46"/>
</g>
<!-- Name : /cnn/cnn.6/MaxPool
Info : TIDL ALLOWLISTING LAYER CHECK &#45;&#45; TIDL_PoolingLayer &#39;&#39;: kernel size 2x1 with stride 2x1 not supported&#45;&gt;Name : /cnn/cnn.7/conv/Conv
Info :  -->
<g id="edge11" class="edge">
<title>Name : /cnn/cnn.6/MaxPool
Info : TIDL ALLOWLISTING LAYER CHECK &#45;&#45; TIDL_PoolingLayer &#39;&#39;: kernel size 2x1 with stride 2x1 not supported&#45;&gt;Name : /cnn/cnn.7/conv/Conv
Info : </title>
<path fill="none" stroke="black" stroke-width="0.7" d="M59,-355.83C59,-352.72 59,-349.13 59,-345.68"/>
<polygon fill="black" stroke="black" stroke-width="0.7" points="59,-340.46 61.25,-345.46 59,-342.96 59,-345.46 59,-345.46 59,-345.46 59,-342.96 56.75,-345.46 59,-340.46 59,-340.46"/>
</g>
<!-- Name : /cnn/cnn.9/MaxPool
Info : TIDL ALLOWLISTING LAYER CHECK &#45;&#45; TIDL_PoolingLayer &#39;&#39;: kernel size 2x1 with stride 2x1 not supported&#45;&gt;Name : /cnn/cnn.10/conv/Conv
Info :  -->
<g id="edge16" class="edge">
<title>Name : /cnn/cnn.9/MaxPool
Info : TIDL ALLOWLISTING LAYER CHECK &#45;&#45; TIDL_PoolingLayer &#39;&#39;: kernel size 2x1 with stride 2x1 not supported&#45;&gt;Name : /cnn/cnn.10/conv/Conv
Info : </title>
<path fill="none" stroke="black" stroke-width="0.7" d="M59,-204.83C59,-201.72 59,-198.13 59,-194.68"/>
<polygon fill="black" stroke="black" stroke-width="0.7" points="59,-189.46 61.25,-194.46 59,-191.96 59,-194.46 59,-194.46 59,-194.46 59,-191.96 56.75,-194.46 59,-189.46 59,-189.46"/>
</g>
<!-- Name : /dense/Add
Info : ALLOWLISTING : ADD/MUL/SUB layer : The variable inputs of layer must have 4 dimensions &#160;&#45;&#45; &#160;file info &#45; tidl_import_common_model_check.cpp , TIDL_checkAddMulSubDivTensorProperties , 281 -->
<g id="node22" class="node">
<title>Name : /dense/Add
Info : ALLOWLISTING : ADD/MUL/SUB layer : The variable inputs of layer must have 4 dimensions &#160;&#45;&#45; &#160;file info &#45; tidl_import_common_model_check.cpp , TIDL_checkAddMulSubDivTensorProperties , 281</title>
<path fill="#707070" stroke="#000000" d="M79.67,-46C79.67,-46 38.33,-46 38.33,-46 35.17,-46 32,-42.83 32,-39.67 32,-39.67 32,-33.33 32,-33.33 32,-30.17 35.17,-27 38.33,-27 38.33,-27 79.67,-27 79.67,-27 82.83,-27 86,-30.17 86,-33.33 86,-33.33 86,-39.67 86,-39.67 86,-42.83 82.83,-46 79.67,-46"/>
<text text-anchor="middle" x="59" y="-34" font-family="Times,serif" font-size="10.00" fill="#ffffff">21:Add</text>
</g>
<!-- Name : /dense/MatMul
Info : Layer type not supported by TIDL &#45;&#45;&#45; layer type &#45; MatMul, &#160;Node name &#45;/dense/MatMul&#45;&gt;Name : /dense/Add
Info : ALLOWLISTING : ADD/MUL/SUB layer : The variable inputs of layer must have 4 dimensions &#160;&#45;&#45; &#160;file info &#45; tidl_import_common_model_check.cpp , TIDL_checkAddMulSubDivTensorProperties , 281 -->
<g id="edge21" class="edge">
<title>Name : /dense/MatMul
Info : Layer type not supported by TIDL &#45;&#45;&#45; layer type &#45; MatMul, &#160;Node name &#45;/dense/MatMul&#45;&gt;Name : /dense/Add
Info : ALLOWLISTING : ADD/MUL/SUB layer : The variable inputs of layer must have 4 dimensions &#160;&#45;&#45; &#160;file info &#45; tidl_import_common_model_check.cpp , TIDL_checkAddMulSubDivTensorProperties , 281</title>
<path fill="none" stroke="black" stroke-width="0.7" d="M59,-53.76C59,-52.98 59,-52.19 59,-51.38"/>
<polygon fill="black" stroke="black" stroke-width="0.7" points="59,-46.11 61.25,-51.11 59,-48.61 59,-51.11 59,-51.11 59,-51.11 59,-48.61 56.75,-51.11 59,-46.11 59,-46.11"/>
</g>
<!-- Output : 21 -->
<g id="node24" class="node">
<title>Output : 21</title>
<path fill="#000000" stroke="#000000" d="M79.67,-19C79.67,-19 38.33,-19 38.33,-19 35.17,-19 32,-15.83 32,-12.67 32,-12.67 32,-6.33 32,-6.33 32,-3.17 35.17,0 38.33,0 38.33,0 79.67,0 79.67,0 82.83,0 86,-3.17 86,-6.33 86,-6.33 86,-12.67 86,-12.67 86,-15.83 82.83,-19 79.67,-19"/>
<text text-anchor="middle" x="59" y="-7" font-family="Times,serif" font-size="10.00" fill="#ffffff">Output</text>
</g>
<!-- Name : /dense/Add
Info : ALLOWLISTING : ADD/MUL/SUB layer : The variable inputs of layer must have 4 dimensions &#160;&#45;&#45; &#160;file info &#45; tidl_import_common_model_check.cpp , TIDL_checkAddMulSubDivTensorProperties , 281&#45;&gt;Output : 21 -->
<g id="edge23" class="edge">
<title>Name : /dense/Add
Info : ALLOWLISTING : ADD/MUL/SUB layer : The variable inputs of layer must have 4 dimensions &#160;&#45;&#45; &#160;file info &#45; tidl_import_common_model_check.cpp , TIDL_checkAddMulSubDivTensorProperties , 281&#45;&gt;Output : 21</title>
<path fill="none" stroke="black" stroke-width="0.7" d="M59,-26.76C59,-25.98 59,-25.19 59,-24.38"/>
<polygon fill="black" stroke="black" stroke-width="0.7" points="59,-19.11 61.25,-24.11 59,-21.61 59,-24.11 59,-24.11 59,-24.11 59,-21.61 56.75,-24.11 59,-19.11 59,-19.11"/>
</g>
<!-- Input : 0 -->
<g id="node23" class="node">
<title>Input : 0</title>
<path fill="#000000" stroke="#000000" d="M79.67,-688C79.67,-688 38.33,-688 38.33,-688 35.17,-688 32,-684.83 32,-681.67 32,-681.67 32,-675.33 32,-675.33 32,-672.17 35.17,-669 38.33,-669 38.33,-669 79.67,-669 79.67,-669 82.83,-669 86,-672.17 86,-675.33 86,-675.33 86,-681.67 86,-681.67 86,-684.83 82.83,-688 79.67,-688"/>
<text text-anchor="middle" x="59" y="-676" font-family="Times,serif" font-size="10.00" fill="#ffffff">Input</text>
</g>
<!-- Input : 0&#45;&gt;Name : /cnn/cnn.0/conv/Conv
Info :  -->
<g id="edge22" class="edge">
<title>Input : 0&#45;&gt;Name : /cnn/cnn.0/conv/Conv
Info : </title>
<path fill="none" stroke="black" stroke-width="0.7" d="M59,-668.83C59,-665.72 59,-662.13 59,-658.68"/>
<polygon fill="black" stroke="black" stroke-width="0.7" points="59,-653.46 61.25,-658.46 59,-655.96 59,-658.46 59,-658.46 59,-658.46 59,-655.96 56.75,-658.46 59,-653.46 59,-653.46"/>
</g>
</g>
</svg>
